<?xml version="1.0" encoding="utf-8"?>
<!-- Generator: Adobe Illustrator 18.0.0, SVG Export Plug-In . SVG Version: 6.00 Build 0)  -->
<!DOCTYPE svg PUBLIC "-//W3C//DTD SVG 1.1//EN" "http://www.w3.org/Graphics/SVG/1.1/DTD/svg11.dtd">
<svg version="1.1" id="svg-source" xmlns="http://www.w3.org/2000/svg" xmlns:xlink="http://www.w3.org/1999/xlink" x="0px" y="0px"
	 width="136.1px" height="22.4px" viewBox="16.1 4.8 136.1 22.4" enable-background="new 16.1 4.8 136.1 22.4" xml:space="preserve"
	>
<g id="facebook">
	<path fill="#7F7F7F" d="M27.3,4.8c-6.2,0-11.2,5-11.2,11.2s5,11.2,11.2,11.2s11.2-5,11.2-11.2S33.5,4.8,27.3,4.8z M29.7,14.1
		l-0.1,1.7h-1.8v5.8h-2.2v-5.8h-1.2v-1.7h1.2V13c0-0.5,0-1.3,0.4-1.8c0.5-0.5,1-0.8,1.9-0.8c1.5,0,2.1,0.2,2.1,0.2l-0.3,1.8
		c0,0-0.5-0.1-0.9-0.1S28,12.4,28,12.9v1.3L29.7,14.1L29.7,14.1z"/>
</g>
<g id="twitter">
	<path fill="#7F7F7F" d="M141,4.8c-6.2,0-11.2,5-11.2,11.2s5,11.2,11.2,11.2s11.2-5,11.2-11.2S147.2,4.8,141,4.8z M145.5,14.2
		c0,0.1,0,0.2,0,0.3c0,3-2.3,6.6-6.6,6.6c-1.3,0-2.5-0.3-3.5-1c0.2,0,0.3,0,0.6,0c1,0,2.1-0.4,2.9-1c-1,0-1.9-0.7-2.2-1.6
		c0.1,0,0.3,0.1,0.4,0.1c0.2,0,0.4,0,0.6-0.1c-1.1-0.2-1.8-1.1-1.8-2.2l0,0c0.3,0.1,0.7,0.3,1,0.3c-0.6-0.4-1-1.1-1-1.9
		c0-0.4,0.1-0.8,0.3-1.2c1.1,1.4,2.8,2.3,4.8,2.4c-0.1-0.1-0.1-0.4-0.1-0.5c0-1.3,1.1-2.3,2.3-2.3c0.6,0,1.3,0.3,1.7,0.7
		c0.6-0.1,1-0.3,1.5-0.6c-0.1,0.6-0.6,1-1,1.3c0.5-0.1,0.9-0.2,1.3-0.3C146.3,13.6,145.9,14,145.5,14.2z"/>
</g>
<g id="instagram">
	<g>
		<polygon fill="#7F7F7F" points="84.3,13.6 84.3,11.9 84.3,11.7 84,11.7 82.4,11.7 82.4,13.6 		"/>
		<path fill="#7F7F7F" d="M80,18c1.1,0,2-0.9,2-2c0-0.4-0.1-0.8-0.3-1.1c-0.4-0.5-0.9-0.8-1.6-0.8c-0.6,0-1.3,0.4-1.6,0.8
			c-0.2,0.4-0.3,0.7-0.3,1.1C78,17.1,78.9,18,80,18z"/>
		<path fill="#7F7F7F" d="M80,4.8c-6.2,0-11.2,5-11.2,11.2s5,11.2,11.2,11.2c6.2,0,11.2-5,11.2-11.2S86.1,4.8,80,4.8z M85.6,14.9
			v4.6c0,1.2-1,2.2-2.2,2.2h-6.9c-1.2,0-2.2-1-2.2-2.2v-4.6v-2.3c0-1.2,1-2.2,2.2-2.2h6.9c1.2,0,2.2,1,2.2,2.2
			C85.6,12.6,85.6,14.9,85.6,14.9z"/>
		<path fill="#7F7F7F" d="M83.1,16c0,1.7-1.4,3.1-3.1,3.1s-3.1-1.4-3.1-3.1c0-0.4,0.1-0.8,0.2-1.1h-1.7v4.6c0,0.6,0.5,1,1,1h6.9
			c0.6,0,1-0.5,1-1v-4.6h-1.5C83,15.2,83.1,15.6,83.1,16z"/>
	</g>
</g>
</svg>
