<?xml version="1.0" encoding="utf-8"?>
<!-- Generator: Adobe Illustrator 18.0.0, SVG Export Plug-In . SVG Version: 6.00 Build 0)  -->
<!DOCTYPE svg PUBLIC "-//W3C//DTD SVG 1.1//EN" "http://www.w3.org/Graphics/SVG/1.1/DTD/svg11.dtd">
<svg version="1.1" id="Layer_1" xmlns="http://www.w3.org/2000/svg" xmlns:xlink="http://www.w3.org/1999/xlink" x="0px" y="0px"
	 width="163.9px" height="112.6px" viewBox="0 0 163.9 112.6" enable-background="new 0 0 163.9 112.6" xml:space="preserve">
<path fill="#F5F2EB" d="M49.5,63.3c0,10.1,6.4,16.3,12.7,16.3C75,79.6,89,62.6,89,46.8c0-10.2-6.5-16.4-12.8-16.4
	C63.6,30.4,49.5,47.3,49.5,63.3z M76.3,33.9c3.3,0,4,1.7,4,6c0,17.4-11.1,36.3-18,36.3c-3.4,0-4.2-1.8-4.2-6.1
	C58.2,52.8,69.3,33.9,76.3,33.9z"/>
<path fill="#F5F2EB" d="M88.8,82.7c-4.9,0-10.2,3.8-10.2,6.8c0,2.7,1.7,4.5,4.3,4.5c4.5,0,2.8-5.4,8.5-5.4c2.2,0,4.3,2.8,4.3,5.4
	c0,7-4.6,13.1-14,13.1c-17.9,0-49.1-43.4-59.4-43.4c-3.3,0-6.4,1.4-7.8,2.7l54.1-54.5c2.6-2.6,5.9-4.5,5.9-5.8
	c0-2.3-1.2-3.9-2.9-3.9c-2.6,0-2.8,7.5-11.8,7.5c-9.3,0-19.5-7.5-29.4-7.5c-7.6,0-16.5,8-16.5,16c0,6.7,3.7,9.7,7.9,9.7
	c3.2,0,5.4-2.1,5.4-5.4c0-5.2-7.6-5-7.6-8.9c0-2,1.3-3.9,3.8-3.9c10,0,18.9,8.4,30.6,8.4c1.6,0,3.7-0.5,4.4-1.2l-52.6,53
	C3.2,72.3,0,74.4,0,75.5c0,2.3,1.6,4,3.3,4c2.4,0,3.6-8.4,10.3-8.4c13.4,0,37.4,41.4,61.1,41.4c18.6,0,24.3-11.3,24.3-18.6
	C99.1,87.9,94.4,82.7,88.8,82.7z"/>
<path fill="#F5F2EB" d="M109.6,62.8c-1.2,0-6.1,8.9-9.7,8.9c-0.9,0-1.2-0.6-1.2-1.6c0-1.3,1.4-4.5,2-6.2L124,3.9
	c0.4-1.2,0.6-2,0.6-2.8c0-0.6-0.3-1.2-1.1-1.2s-1.3,0.4-1.8,0.7c-3.1,1.9-10.7,4.8-15.4,5.6c-0.5,0-0.9,0.5-0.9,1.3
	c0,0.7,0.3,1.3,0.9,1.4c3,0.3,4.5,1.1,4.5,2.6c0,1.1-0.3,2.6-1.2,4.8L90.2,67.1c-1,2.7-1.5,4.9-1.5,6.8c0,3.5,1.7,5.6,5.6,5.6
	c6.6,0,17.1-14,17-14.9C111.3,64,110.7,62.8,109.6,62.8z"/>
<path fill="#F5F2EB" d="M163.8,31.3c0.5-1-1.1-1.8-3.8-1.8c-2.6,0-5,0.6-5.5,1.8l-1.3,3.1c-1.3-0.9-2.8-1.2-4.6-1.2
	c-11.4,0-34.5,23.1-34.5,38.6c0,4.9,2.2,7.8,5.9,7.8c6.5,0,16.5-8.5,21.6-18c-2.5,4.6-4.5,9.4-4.5,13c0,3.1,1.7,5,5.3,5
	c6.5,0,17.1-13.5,17.1-14.4c0-0.6-0.6-1.8-1.7-1.8c-0.9,0-7.2,9.4-9.7,9.4c-0.7,0-1.1-0.4-1.1-1.3c0-1.3,0.7-3.3,1.6-5.2L163.8,31.3
	z M127.2,71.5c-2.8,0-3.9-1.4-3.9-5.3c0-9.6,14.9-29.6,25-29.6c1.7,0,2.3,1.2,2.3,3.2C150.6,47.2,133.1,71.5,127.2,71.5z"/>
</svg>
